# xmcd
#
# Track frame offsets:
#	150
#	27933
#	54491
#	82057
#	103977
#	143027
#	158728
#	174464
#	192563
#	206881
#
# Disc length: 3062 seconds
#
# Revision: 1
# Processed by: cddbd v1.5.1PL0 Copyright (c) Steve Scherf et al.
# Submitted via: EasyCDDAExtractor 7.0.5.4
#
DISCID=8f0bf40a
DTITLE=Eric Clapton - Eric Clapton CBE At The RAH
DYEAR=2004
DGENRE=Blues
TTITLE0=Let It Rain
TTITLE1=Hoochie Coochie Man
TTITLE2=Walk Out In The Rain
TTITLE3=I Want A Little Girl
TTITLE4=I Shot The Sheriff
TTITLE5=Me And The Devil Blues
TTITLE6=They're Red Hot
TTITLE7=Milkcow's Calf Blues
TTITLE8=If I Had Possession Over Judgement Day
TTITLE9=Kind Hearted Woman Blues
EXTD=
EXTT0=
EXTT1=
EXTT2=
EXTT3=
EXTT4=
EXTT5=
EXTT6=
EXTT7=
EXTT8=
EXTT9=
PLAYORDER=
